<svg xmlns="http://www.w3.org/2000/svg" viewBox="11 24.5 74 74">
  <!-- Deckwarden shield (W1): the crest's shield + sword, tight-cropped for tab
       size. Edit src/components/brand-mark.tsx (shield variant) and this file
       together. -->
  <path d="M48 27.5C56.5 33.5 66.5 37.8 77.5 40.7V54C77.5 71 66.5 84 48 95C29.5 84 18.5 71 18.5 54V40.7C29.5 37.8 39.5 33.5 48 27.5Z" fill="#242c2f" stroke="#ba9b61" stroke-width="5" stroke-linejoin="round"/>
  <g fill="#ba9b61">
    <path d="M48 33.5l3.1 3.9-3.1 3.9-3.1-3.9Z"/>
    <rect x="46.4" y="40.5" width="3.2" height="9"/>
    <path d="M37 49.2c7.2-2.4 14.8-2.4 22 0l-1.1 3.6c-6.4-2-13.4-2-19.8 0Z"/>
    <path d="M45 52.5h6V79L48 87 45 79Z"/>
  </g>
</svg>
